<svg width="26" height="30" viewBox="0 0 26 30" fill="none" xmlns="http://www.w3.org/2000/svg">
<path d="M21.5 3.66666H20.0833V2.24999C20.0833 1.87427 19.9341 1.51394 19.6684 1.24826C19.4027 0.982584 19.0424 0.833328 18.6667 0.833328C18.2909 0.833328 17.9306 0.982584 17.6649 1.24826C17.3993 1.51394 17.25 1.87427 17.25 2.24999V3.66666H8.75V2.24999C8.75 1.87427 8.60074 1.51394 8.33507 1.24826C8.06939 0.982584 7.70906 0.833328 7.33333 0.833328C6.95761 0.833328 6.59728 0.982584 6.3316 1.24826C6.06592 1.51394 5.91667 1.87427 5.91667 2.24999V3.66666H4.5C3.37283 3.66666 2.29183 4.11443 1.4948 4.91146C0.697767 5.70849 0.25 6.78949 0.25 7.91666V24.9167C0.25 26.0438 0.697767 27.1248 1.4948 27.9219C2.29183 28.7189 3.37283 29.1667 4.5 29.1667H21.5C22.6272 29.1667 23.7082 28.7189 24.5052 27.9219C25.3022 27.1248 25.75 26.0438 25.75 24.9167V7.91666C25.75 6.78949 25.3022 5.70849 24.5052 4.91146C23.7082 4.11443 22.6272 3.66666 21.5 3.66666ZM4.5 6.49999H5.91667V7.91666C5.91667 8.29238 6.06592 8.65272 6.3316 8.9184C6.59728 9.18407 6.95761 9.33333 7.33333 9.33333C7.70906 9.33333 8.06939 9.18407 8.33507 8.9184C8.60074 8.65272 8.75 8.29238 8.75 7.91666V6.49999H17.25V7.91666C17.25 8.29238 17.3993 8.65272 17.6649 8.9184C17.9306 9.18407 18.2909 9.33333 18.6667 9.33333C19.0424 9.33333 19.4027 9.18407 19.6684 8.9184C19.9341 8.65272 20.0833 8.29238 20.0833 7.91666V6.49999H21.5C21.8757 6.49999 22.2361 6.64925 22.5017 6.91493C22.7674 7.1806 22.9167 7.54094 22.9167 7.91666V13.5833H3.08333V7.91666C3.08333 7.54094 3.23259 7.1806 3.49827 6.91493C3.76394 6.64925 4.12428 6.49999 4.5 6.49999ZM21.5 26.3333H4.5C4.12428 26.3333 3.76394 26.1841 3.49827 25.9184C3.23259 25.6527 3.08333 25.2924 3.08333 24.9167V16.4167H22.9167V24.9167C22.9167 25.2924 22.7674 25.6527 22.5017 25.9184C22.2361 26.1841 21.8757 26.3333 21.5 26.3333Z" fill="#4B0082"/>
</svg>
