<svg width="34" height="34" viewBox="0 0 34 34" fill="none" xmlns="http://www.w3.org/2000/svg">
<path d="M16.9997 2.83333C14.1978 2.83333 11.4588 3.66419 9.1291 5.22084C6.79941 6.7775 4.98363 8.99003 3.91139 11.5786C2.83915 14.1673 2.5586 17.0157 3.10522 19.7638C3.65185 22.5118 5.00109 25.0361 6.98233 27.0173C8.96358 28.9986 11.4878 30.3478 14.2359 30.8945C16.984 31.4411 19.8324 31.1605 22.421 30.0883C25.0096 29.016 27.2222 27.2003 28.7788 24.8706C30.3355 22.5409 31.1663 19.8019 31.1663 17C31.1663 15.1396 30.7999 13.2974 30.088 11.5786C29.376 9.85987 28.3325 8.29815 27.017 6.98265C25.7015 5.66715 24.1398 4.62364 22.421 3.9117C20.7023 3.19976 18.8601 2.83333 16.9997 2.83333ZM16.9997 28.3333C14.7582 28.3333 12.567 27.6686 10.7032 26.4233C8.83946 25.178 7.38684 23.408 6.52905 21.3371C5.67125 19.2662 5.44682 16.9874 5.88411 14.789C6.32141 12.5905 7.40081 10.5711 8.9858 8.98612C10.5708 7.40112 12.5902 6.32173 14.7887 5.88443C16.9871 5.44713 19.2659 5.67157 21.3368 6.52936C23.4077 7.38715 25.1777 8.83978 26.423 10.7035C27.6683 12.5673 28.333 14.7585 28.333 17C28.333 20.0058 27.139 22.8885 25.0136 25.0139C22.8881 27.1393 20.0055 28.3333 16.9997 28.3333Z" fill="#4B0082"/>
<path d="M22.6663 15.5833H18.4163V11.3333C18.4163 10.9576 18.2671 10.5973 18.0014 10.3316C17.7357 10.0659 17.3754 9.91667 16.9997 9.91667C16.624 9.91667 16.2636 10.0659 15.9979 10.3316C15.7323 10.5973 15.583 10.9576 15.583 11.3333V17C15.583 17.3757 15.7323 17.7361 15.9979 18.0017C16.2636 18.2674 16.624 18.4167 16.9997 18.4167H22.6663C23.0421 18.4167 23.4024 18.2674 23.6681 18.0017C23.9338 17.7361 24.083 17.3757 24.083 17C24.083 16.6243 23.9338 16.2639 23.6681 15.9983C23.4024 15.7326 23.0421 15.5833 22.6663 15.5833Z" fill="#4B0082"/>
</svg>
