<svg width="465" height="506" viewBox="0 0 465 506" fill="none" xmlns="http://www.w3.org/2000/svg">
<path d="M232.371 504.919C289.13 504.919 335.143 498.864 335.143 491.394C335.143 483.924 289.13 477.869 232.371 477.869C175.612 477.869 129.599 483.924 129.599 491.394C129.599 498.864 175.612 504.919 232.371 504.919Z" stroke="#263238" stroke-width="1.12147" stroke-miterlimit="10"/>
<path d="M233.514 499.805C280.116 499.805 317.894 495.839 317.894 490.946C317.894 486.053 280.116 482.086 233.514 482.086C186.913 482.086 149.135 486.053 149.135 490.946C149.135 495.839 186.913 499.805 233.514 499.805Z" fill="#F1EAF5"/>
<path d="M448.704 225.449C448.704 225.449 448.269 225.335 447.493 225.18C446.393 224.961 445.263 224.929 444.151 225.087C442.514 225.32 440.972 225.996 439.692 227.042C438.141 228.334 437.051 230.096 436.588 232.061L436.402 232.806L436.112 232.102C435.346 230.233 434.033 228.638 432.346 227.529C430.965 226.625 429.377 226.087 427.731 225.966C426.202 225.888 424.671 226.081 423.209 226.535C423.564 226.312 423.952 226.144 424.358 226.039C425.454 225.694 426.604 225.55 427.752 225.614C429.458 225.721 431.106 226.274 432.532 227.218C434.322 228.356 435.715 230.023 436.515 231.988H436.039V231.936C436.537 229.861 437.713 228.011 439.381 226.68C440.513 225.787 441.837 225.169 443.248 224.875C444.659 224.58 446.12 224.617 447.514 224.983C447.934 225.071 448.336 225.228 448.704 225.449Z" fill="#E0E0E0"/>
<path d="M63.1571 164.506C63.1571 164.506 62.7225 164.392 61.9465 164.237C60.8457 164.018 59.7158 163.986 58.6045 164.144C56.9663 164.372 55.423 165.049 54.145 166.099C52.5937 167.391 51.5042 169.152 51.0409 171.117V171.169L50.8547 171.914L50.5649 171.21C49.7994 169.341 48.4866 167.747 46.7987 166.637C45.4179 165.733 43.8298 165.196 42.1839 165.075C40.655 164.996 39.1242 165.189 37.6624 165.644C37.9897 165.422 38.3491 165.251 38.7281 165.137C39.8245 164.792 40.9743 164.648 42.1219 164.713C43.8579 164.783 45.5438 165.315 47.0056 166.254C48.7935 167.395 50.1849 169.062 50.9892 171.024H50.5132V170.973C51.0107 168.897 52.1869 167.047 53.8553 165.716C54.9895 164.829 56.3165 164.22 57.7292 163.94C59.1419 163.659 60.6007 163.715 61.9879 164.102C62.397 164.172 62.7919 164.309 63.1571 164.506Z" fill="#E0E0E0"/>
<path d="M330.821 143.139C330.478 143.585 330.109 144.01 329.714 144.412C328.71 145.566 327.803 146.802 327.003 148.106C324.334 152.399 322.935 157.36 322.968 162.415V162.591H322.471C321.698 157.634 319.393 153.043 315.88 149.461C314.399 148.012 312.785 146.706 311.059 145.56C311.059 145.56 311.203 145.56 311.462 145.736C311.721 145.912 312.083 146.057 312.497 146.357C313.792 147.179 314.995 148.136 316.087 149.213C319.745 152.791 322.141 157.461 322.916 162.519H322.419V162.343C322.387 157.204 323.862 152.167 326.662 147.857C327.496 146.559 328.456 145.346 329.528 144.236C329.9 143.832 330.231 143.553 330.438 143.356C330.555 143.266 330.684 143.192 330.821 143.139Z" fill="#E0E0E0"/>
<path d="M409.054 410.679L408.403 410.824C408.485 410.989 408.578 411.155 408.651 411.32L409.054 410.679Z" fill="#EBEBEB"/>
<g opacity="0.7">
<path d="M232.215 40.7978L237.616 51.7655C237.809 52.1478 238.092 52.4781 238.439 52.7284C238.787 52.9788 239.189 53.1418 239.613 53.2037L251.709 54.9627C252.196 55.0361 252.653 55.2438 253.028 55.5625C253.404 55.8812 253.683 56.2983 253.834 56.7668C253.986 57.2354 254.004 57.737 253.886 58.2152C253.768 58.6934 253.52 59.1293 253.168 59.4739L244.425 68.0101C244.115 68.3073 243.883 68.676 243.75 69.0838C243.616 69.4915 243.585 69.9258 243.659 70.3485L245.666 82.3613C245.749 82.8479 245.695 83.3481 245.509 83.8054C245.323 84.2628 245.013 84.6591 244.614 84.9496C244.215 85.2401 243.742 85.4132 243.25 85.4495C242.758 85.4858 242.265 85.3838 241.828 85.1549L231.005 79.4641C230.625 79.2656 230.202 79.1619 229.773 79.1619C229.345 79.1619 228.922 79.2656 228.542 79.4641L217.73 85.186C217.292 85.4148 216.799 85.5168 216.307 85.4806C215.815 85.4443 215.342 85.2711 214.943 84.9806C214.544 84.6901 214.234 84.2938 214.048 83.8365C213.862 83.3791 213.808 82.8789 213.891 82.3923L215.96 70.3485C216.031 69.9259 215.999 69.4923 215.865 69.085C215.732 68.6777 215.502 68.3089 215.195 68.0101L206.441 59.4739C206.089 59.1286 205.841 58.6919 205.723 58.2129C205.606 57.734 205.625 57.2318 205.778 56.763C205.93 56.2941 206.211 55.8772 206.588 55.5591C206.964 55.2411 207.423 55.0345 207.91 54.9627L220.006 53.2037C220.429 53.1427 220.83 52.98 221.177 52.7295C221.523 52.4789 221.803 52.1481 221.993 51.7655L227.404 40.7978C227.616 40.338 227.955 39.9486 228.381 39.6756C228.808 39.4026 229.303 39.2576 229.81 39.2576C230.316 39.2576 230.812 39.4026 231.238 39.6756C231.664 39.9486 232.003 40.338 232.215 40.7978Z" fill="#F69204"/>
<path d="M211.522 48.0407C211.429 48.1442 204.558 41.7705 196.198 33.8034C187.838 25.8363 181.133 19.3177 181.237 19.1832C181.34 19.0487 188.241 25.4535 196.612 33.4206C204.983 41.3877 211.667 47.9373 211.522 48.0407Z" fill="#F69204"/>
<path d="M197.222 54.7867C197.222 54.9316 191.314 54.6936 184.061 54.259C176.808 53.8244 170.921 53.3381 170.921 53.2243C170.921 53.1105 176.829 53.3071 184.092 53.752C191.356 54.1969 197.222 54.6418 197.222 54.7867Z" fill="#F69204"/>
<path d="M219.592 35.1483C218.168 32.5996 216.9 29.9666 215.795 27.264C214.526 24.6325 213.417 21.927 212.474 19.1624C213.909 21.7069 215.181 24.3404 216.281 27.0467C217.551 29.6762 218.657 32.3819 219.592 35.1483Z" fill="#F69204"/>
<path d="M228.749 0C228.894 0 229.019 7.24283 229.019 16.0998C229.019 24.9567 228.894 32.2099 228.749 32.2099C228.605 32.2099 228.48 24.9671 228.48 16.0998C228.48 7.23248 228.605 0 228.749 0Z" fill="#F69204"/>
<path d="M247.043 19.4624C246.068 22.1348 244.928 24.7438 243.628 27.2743C242.482 29.8774 241.176 32.4069 239.717 34.8482C240.693 32.1747 241.837 29.5655 243.142 27.0363C244.282 24.4323 245.585 21.9027 247.043 19.4624Z" fill="#F69204"/>
<path d="M276.604 24.7291C276.686 24.8533 268.792 30.5027 259.014 37.3524C249.236 44.202 241.165 49.6652 241.083 49.541C241 49.4168 248.884 43.7674 258.672 36.9074C268.461 30.0474 276.51 24.605 276.604 24.7291Z" fill="#F69204"/>
<path d="M277.38 47.6165C274.543 49.0119 271.631 50.2485 268.657 51.3206C265.748 52.5291 262.77 53.5656 259.738 54.4247C262.566 53.0515 265.468 51.8356 268.43 50.7826C271.348 49.5519 274.337 48.4947 277.38 47.6165Z" fill="#F69204"/>
<path d="M208.573 69.6658C208.573 69.8004 198.36 73.4632 185.654 77.8295C172.948 82.1959 162.601 85.6311 162.56 85.4656C162.519 85.3 172.772 81.6682 185.478 77.2915C198.184 72.9148 208.531 69.521 208.573 69.6658Z" fill="#F69204"/>
<path d="M289.454 80.9437C289.454 81.0886 280.391 78.6778 269.288 75.5634C258.186 72.4489 249.215 69.8105 249.257 69.6656C249.298 69.5208 258.331 71.9316 269.433 75.046C280.535 78.1604 289.496 80.7989 289.454 80.9437Z" fill="#F69204"/>
<path d="M200.14 99.6406C202.059 97.6252 204.101 95.7315 206.255 93.9705C208.295 92.0695 210.458 90.3066 212.732 88.6936C210.814 90.7156 208.768 92.613 206.607 94.374C204.566 96.2655 202.406 98.0246 200.14 99.6406Z" fill="#F69204"/>
<path d="M229.608 124.98C229.463 124.98 229.391 116.134 229.442 105.238C229.494 94.3432 229.67 85.4862 229.815 85.4966C229.96 85.5069 230.043 94.3328 229.98 105.238C229.918 116.144 229.763 124.98 229.608 124.98Z" fill="#F69204"/>
<path d="M260.152 101.855C257.918 100.114 255.796 98.2344 253.799 96.226C251.649 94.3528 249.624 92.3412 247.736 90.2041C249.97 91.9444 252.092 93.8244 254.089 95.8328C256.239 97.706 258.264 99.7176 260.152 101.855Z" fill="#F69204"/>
<path d="M282.284 64.5647L282.377 66.3444C282.38 66.4075 282.398 66.4688 282.431 66.523C282.463 66.5772 282.509 66.6224 282.563 66.6548L284.074 67.586C284.137 67.6224 284.189 67.6763 284.223 67.7412C284.257 67.8062 284.272 67.8796 284.265 67.9526C284.259 68.0256 284.231 68.0952 284.186 68.1531C284.141 68.211 284.081 68.2548 284.012 68.2793L282.346 68.9104C282.289 68.933 282.238 68.9694 282.198 69.0163C282.158 69.0633 282.131 69.1193 282.118 69.1795L281.694 70.9177C281.677 70.9873 281.64 71.0507 281.589 71.1006C281.537 71.1506 281.473 71.185 281.403 71.2001C281.333 71.2152 281.26 71.2103 281.192 71.186C281.125 71.1617 281.066 71.1189 281.021 71.0626L279.904 69.6864C279.865 69.6369 279.814 69.5978 279.757 69.5725C279.699 69.5472 279.636 69.5366 279.573 69.5416L277.793 69.6761C277.722 69.6818 277.651 69.6674 277.587 69.6347C277.524 69.6019 277.471 69.552 277.434 69.4906C277.397 69.4292 277.379 69.3588 277.38 69.2874C277.381 69.2159 277.403 69.1463 277.441 69.0863L278.414 67.586C278.444 67.5322 278.46 67.4717 278.46 67.4101C278.46 67.3486 278.444 67.288 278.414 67.2342L277.731 65.5787C277.707 65.5125 277.701 65.4411 277.715 65.3719C277.728 65.3027 277.759 65.2383 277.806 65.1854C277.852 65.1326 277.912 65.0931 277.979 65.0713C278.046 65.0495 278.118 65.0461 278.186 65.0614L279.914 65.527C279.975 65.5415 280.039 65.5416 280.1 65.5272C280.161 65.5128 280.218 65.4844 280.266 65.4442L281.622 64.2957C281.674 64.2392 281.743 64.2001 281.819 64.1835C281.894 64.1669 281.973 64.1736 282.045 64.2027C282.117 64.2319 282.178 64.282 282.221 64.3467C282.263 64.4113 282.285 64.4873 282.284 64.5647Z" fill="#F69204"/>
<path d="M293.707 45.8056L294.525 46.654C294.552 46.6834 294.586 46.7055 294.624 46.7181C294.662 46.7308 294.703 46.7337 294.742 46.7265L295.901 46.5402C295.948 46.5332 295.996 46.5393 296.039 46.5577C296.083 46.5761 296.121 46.6062 296.149 46.6446C296.176 46.6831 296.193 46.7284 296.197 46.7757C296.201 46.823 296.191 46.8704 296.17 46.9127L295.611 47.9474C295.591 47.9839 295.581 48.0248 295.581 48.0664C295.581 48.108 295.591 48.1489 295.611 48.1854L296.149 49.2201C296.169 49.2629 296.176 49.3102 296.171 49.3569C296.165 49.4037 296.147 49.4481 296.119 49.4853C296.09 49.5226 296.051 49.5513 296.008 49.5683C295.964 49.5854 295.916 49.5902 295.87 49.5822L294.721 49.3753C294.681 49.3668 294.64 49.3681 294.6 49.3789C294.56 49.3896 294.524 49.4097 294.494 49.4374L293.666 50.2755C293.632 50.3082 293.59 50.3309 293.544 50.3413C293.498 50.3517 293.45 50.3493 293.405 50.3344C293.36 50.3195 293.32 50.2926 293.29 50.2567C293.259 50.2208 293.239 50.1772 293.231 50.1306L293.076 48.9614C293.071 48.9215 293.056 48.8835 293.033 48.851C293.009 48.8184 292.978 48.7923 292.942 48.7752L291.907 48.2371C291.863 48.2178 291.825 48.186 291.798 48.1455C291.772 48.1051 291.758 48.0578 291.758 48.0095C291.758 47.9612 291.772 47.9139 291.798 47.8734C291.825 47.833 291.863 47.8012 291.907 47.7819L292.942 47.2749C292.98 47.26 293.014 47.2348 293.04 47.202C293.066 47.1691 293.082 47.1299 293.086 47.0886L293.262 45.9401C293.27 45.8923 293.291 45.8476 293.323 45.8112C293.355 45.7747 293.396 45.748 293.443 45.734C293.489 45.72 293.539 45.7192 293.585 45.7319C293.632 45.7446 293.674 45.7701 293.707 45.8056Z" fill="#F69204"/>
<path d="M162.488 31.7236L163.295 32.572C163.321 32.6031 163.355 32.6264 163.393 32.6392C163.431 32.652 163.473 32.6538 163.512 32.6444L164.671 32.4582C164.718 32.4512 164.766 32.4572 164.809 32.4757C164.853 32.4941 164.891 32.5241 164.919 32.5626C164.946 32.601 164.963 32.6464 164.967 32.6937C164.971 32.741 164.961 32.7884 164.94 32.8307L164.381 33.8654C164.361 33.9019 164.351 33.9428 164.351 33.9844C164.351 34.0259 164.361 34.0669 164.381 34.1034L164.919 35.138C164.939 35.1809 164.946 35.2282 164.941 35.2749C164.935 35.3216 164.917 35.366 164.889 35.4033C164.86 35.4405 164.822 35.4692 164.778 35.4863C164.734 35.5034 164.686 35.5082 164.64 35.5002L163.491 35.2932C163.45 35.287 163.409 35.2902 163.369 35.3028C163.33 35.3154 163.294 35.3369 163.264 35.3657L162.436 36.1934C162.402 36.2261 162.36 36.2489 162.314 36.2593C162.268 36.2697 162.22 36.2673 162.175 36.2523C162.13 36.2374 162.09 36.2106 162.06 36.1746C162.029 36.1387 162.009 36.0951 162.001 36.0486L161.857 34.9001C161.851 34.8592 161.836 34.8202 161.812 34.7861C161.789 34.752 161.758 34.7237 161.722 34.7035L160.687 34.1758C160.646 34.1536 160.612 34.1208 160.588 34.0807C160.564 34.0406 160.552 33.9948 160.552 33.9481C160.552 33.9015 160.564 33.8557 160.588 33.8156C160.612 33.7755 160.646 33.7427 160.687 33.7205L161.722 33.2135C161.76 33.1952 161.794 33.1677 161.819 33.1334C161.844 33.0991 161.861 33.0591 161.867 33.0169L162.043 31.8581C162.051 31.8103 162.072 31.7656 162.103 31.7292C162.135 31.6927 162.177 31.666 162.223 31.6519C162.27 31.6379 162.319 31.6372 162.366 31.6499C162.412 31.6625 162.455 31.6881 162.488 31.7236Z" fill="#F69204"/>
</g>
<path d="M187.01 192.38H273.603C276.935 192.38 276.935 187.206 273.603 187.206H187.01C183.678 187.206 183.668 192.38 187.01 192.38Z" fill="#455A64"/>
<path d="M190 93.4739H183.792V490.774H190V93.4739Z" fill="#455A64"/>
<path d="M189.679 490.784C189.534 490.784 189.41 401.894 189.41 292.269C189.41 182.643 189.534 93.7427 189.679 93.7427C189.824 93.7427 189.948 182.612 189.948 292.269C189.948 401.925 189.793 490.784 189.679 490.784Z" fill="#263238"/>
<path d="M187.01 152.182H273.603C276.935 152.182 276.935 147.009 273.603 147.009H187.01C183.678 147.009 183.668 152.182 187.01 152.182Z" fill="#455A64"/>
<path d="M276.645 94.2913H270.437V490.774H276.645V94.2913Z" fill="#455A64"/>
<path d="M270.592 440.83C270.437 440.83 270.323 363.404 270.323 267.912C270.323 172.421 270.437 94.9741 270.592 94.9741C270.747 94.9741 270.861 172.39 270.861 267.912C270.861 363.435 270.737 440.83 270.592 440.83Z" fill="#263238"/>
<path d="M186.896 457.188H273.541C276.862 457.188 276.872 452.015 273.541 452.015H186.896C183.574 452.015 183.564 457.188 186.896 457.188Z" fill="#455A64"/>
<path d="M188.758 376.989H270.157C273.489 376.989 273.489 371.816 270.157 371.816H188.758C185.426 371.816 185.416 376.989 188.758 376.989Z" fill="#455A64"/>
<path d="M186.896 320.94H273.541C276.862 320.94 276.872 315.766 273.541 315.766H186.896C183.574 315.766 183.564 320.94 186.896 320.94Z" fill="#455A64"/>
<path d="M186.896 276.728H273.541C276.862 276.728 276.872 271.554 273.541 271.554H186.896C183.574 271.554 183.564 276.728 186.896 276.728Z" fill="#455A64"/>
<path d="M186.896 233.561H273.541C276.862 233.561 276.872 228.387 273.541 228.387H186.896C183.574 228.387 183.564 233.561 186.896 233.561Z" fill="#455A64"/>
<path d="M187.724 418.315H270.075C273.406 418.315 273.406 413.142 270.075 413.142H187.724C184.392 413.142 184.392 418.315 187.724 418.315Z" fill="#455A64"/>
<path d="M258.217 157.583L252.961 145.881C252.961 145.881 253.24 139.673 252.35 139.093C251.129 138.369 250.829 138.969 250.488 141.059L250.002 144.163C250.002 144.163 247.994 139.786 246.122 139.61C244.849 139.486 244.487 141.68 244.487 141.68C244.487 141.68 242.366 139.704 240.865 140.18C239.365 140.655 239.831 142.704 239.831 142.704C239.618 142.559 239.374 142.465 239.119 142.429C238.864 142.392 238.604 142.414 238.359 142.493C238.113 142.571 237.889 142.705 237.703 142.883C237.517 143.061 237.374 143.28 237.285 143.522C236.406 145.663 240.265 148.912 240.855 150.351C242.086 153.351 239.469 153.455 239.469 153.455C239.469 153.455 232.753 152.596 233.095 154.324C233.436 156.052 235.682 156.041 237.41 156.217C238.837 156.362 244.238 157.707 245.987 158.142C246.354 158.237 246.703 158.391 247.022 158.597L251.036 162.736L258.217 157.583Z" fill="#FFBE9D"/>
<path d="M255.496 426.354L255.268 456.402L239.055 456.598L239.22 426.499L255.496 426.354Z" fill="#C2ADD2"/>
<path d="M247.27 455.367C247.125 455.367 247.156 448.786 247.27 440.674C247.384 432.562 247.684 425.992 247.819 425.992C247.953 425.992 247.932 432.573 247.767 440.685C247.601 448.797 247.405 455.367 247.27 455.367Z" fill="#263238"/>
<path d="M239.106 446.986C239.206 446.745 239.35 446.523 239.531 446.334C239.963 445.775 240.452 445.262 240.99 444.803C241.781 444.102 242.669 443.52 243.628 443.075C245.3 442.286 247.18 442.053 248.994 442.41C250.807 442.768 252.459 443.697 253.706 445.062C254.18 445.595 254.574 446.194 254.875 446.841C255.002 447.069 255.086 447.318 255.123 447.576C254.627 446.773 254.066 446.012 253.447 445.3C251.849 443.682 249.678 442.76 247.405 442.734C245.128 442.778 242.936 443.603 241.197 445.072C239.841 446.158 239.179 447.038 239.106 446.986Z" fill="#263238"/>
<path opacity="0.3" d="M239.055 437.374L239.044 440.674H255.496V437.374H239.055Z" fill="black"/>
<path d="M239.055 456.598L239.065 453.463H255.289L255.268 456.402L239.055 456.598Z" fill="#E0E0E0"/>
<path d="M221.486 348.38L221.268 377.217L205.717 377.403L205.872 348.525L221.486 348.38Z" fill="#C2ADD2"/>
<path d="M213.591 376.213C213.466 376.213 213.487 369.902 213.642 362.121C213.798 354.34 214.036 348.028 214.16 348.028C214.284 348.028 214.274 354.34 214.108 362.131C213.942 369.922 213.725 376.213 213.591 376.213Z" fill="#263238"/>
<path d="M205.769 368.174C205.769 368.174 205.882 367.936 206.172 367.553C206.591 367.018 207.062 366.525 207.579 366.084C208.336 365.413 209.187 364.855 210.104 364.428C211.708 363.667 213.515 363.443 215.257 363.787C216.999 364.132 218.584 365.028 219.778 366.342C220.23 366.851 220.607 367.423 220.896 368.039C221.023 368.259 221.103 368.502 221.134 368.753C220.667 367.978 220.13 367.247 219.53 366.57C217.996 365.016 215.909 364.13 213.725 364.107C211.547 364.147 209.45 364.936 207.786 366.342C206.472 367.387 205.831 368.236 205.769 368.174Z" fill="#263238"/>
<path opacity="0.3" d="M205.717 358.955L205.707 362.131H221.486V358.955H205.717Z" fill="black"/>
<path d="M205.717 377.403L205.727 374.403H221.289L221.268 377.217L205.717 377.403Z" fill="#E0E0E0"/>
<path d="M224.455 155.121L224.869 155.017C225.526 153.912 226.448 152.988 227.552 152.329C228.656 151.669 229.907 151.295 231.191 151.241C233.783 151.174 236.3 152.112 238.217 153.858C239.551 155.048 240.607 156.518 241.942 157.687C242.572 158.321 243.338 158.804 244.182 159.098C245.027 159.392 245.927 159.489 246.815 159.384C247.022 160.035 245.78 160.418 245.884 161.091C245.924 161.251 246.012 161.394 246.136 161.503C246.26 161.612 246.413 161.681 246.577 161.701C247.052 161.738 247.53 161.738 248.005 161.701C248.243 161.683 248.482 161.74 248.686 161.864C248.89 161.988 249.05 162.174 249.143 162.395C249.184 162.627 249.163 162.866 249.081 163.088C248.629 165.148 247.657 167.057 246.256 168.634C245.55 169.412 244.664 170.008 243.677 170.368C242.689 170.729 241.628 170.844 240.586 170.703C238.968 170.252 237.483 169.414 236.261 168.261L228.811 162.291C227.629 161.422 226.565 160.403 225.645 159.259C224.719 158.091 224.291 156.603 224.455 155.121Z" fill="#263238"/>
<path d="M226.007 155.535C225.006 154.693 223.817 154.104 222.541 153.817C221.904 153.68 221.246 153.673 220.606 153.796C219.966 153.919 219.357 154.169 218.816 154.531C217.907 155.337 217.137 156.288 216.54 157.345C216.238 157.873 215.834 158.334 215.35 158.702C214.867 159.07 214.314 159.337 213.725 159.487C213.514 159.488 213.309 159.553 213.136 159.673C212.856 159.932 213.053 160.439 213.394 160.594C213.754 160.713 214.142 160.713 214.501 160.594C213.904 161.293 213.08 161.758 212.173 161.908C212.29 162.342 212.573 162.711 212.96 162.938C213.347 163.165 213.808 163.23 214.243 163.119C213.841 164.514 213.612 165.952 213.56 167.403C213.516 168.867 214.013 170.296 214.957 171.417C215.991 172.586 217.802 173.238 218.278 174.77" fill="#263238"/>
<path d="M236.447 206.669L217.078 206.421L219.24 189.865C219.24 189.865 217.916 189.576 217.833 182.395C217.75 175.214 217.409 162.995 217.409 162.995C221.491 161.245 225.965 160.616 230.371 161.175C234.777 161.733 238.953 163.458 242.469 166.171L243.504 166.988L236.447 206.669Z" fill="#FFBE9D"/>
<path d="M241.29 175.856C241.414 175.794 246.215 174.387 246.06 179.302C245.904 184.216 241.01 183.047 241.01 182.902C241.01 182.757 241.29 175.856 241.29 175.856Z" fill="#FFBE9D"/>
<path d="M218.247 174.821C218.123 174.77 213.746 173.59 213.912 178.505C214.077 183.42 218.961 182.25 218.961 182.106C218.961 181.961 218.247 174.821 218.247 174.821Z" fill="#FFBE9D"/>
<path d="M242.873 175.307C242.148 179.446 242.293 181.578 241.61 184.33C240.576 188.686 238.382 192.018 234.461 194.191C230.539 196.363 225.252 196.322 221.9 193.363C219.536 191.537 217.981 188.86 217.564 185.903C217.212 182.799 216.302 177.004 216.281 173.9C216.281 168.292 216.436 163.264 216.436 163.264L232.433 160.356L241.538 165.778L242.873 175.307Z" fill="#263238"/>
<path d="M226.369 196.674C227.278 196.943 228.231 197.027 229.173 196.922C230.115 196.818 231.026 196.526 231.853 196.063C231.853 195.939 230.632 196.312 229.122 196.477C227.611 196.643 226.39 196.539 226.369 196.674Z" fill="#263238"/>
<path d="M242.107 182.302C242.573 178.08 242.873 173.259 243.535 168.851C243.96 166.962 244.192 165.034 244.228 163.098C244.083 161.412 243.618 161.929 242.873 160.398C241.942 158.494 238.393 157.221 236.313 156.807C234.233 156.393 233.975 154.583 232.381 155.979C231.803 155.087 230.964 154.395 229.979 153.997C228.993 153.598 227.909 153.513 226.873 153.753C225.837 153.992 224.901 154.545 224.19 155.336C223.48 156.127 223.031 157.118 222.903 158.173C222.328 157.63 221.59 157.291 220.803 157.208C220.016 157.125 219.224 157.303 218.548 157.715C217.872 158.126 217.35 158.748 217.062 159.485C216.774 160.222 216.736 161.034 216.954 161.794C216.381 161.899 215.842 162.144 215.386 162.508C214.93 162.871 214.571 163.341 214.341 163.877C214.11 164.412 214.016 164.996 214.066 165.577C214.115 166.158 214.308 166.717 214.626 167.206C215.371 168.344 216.695 168.975 217.523 170.062C217.966 170.7 218.22 171.45 218.256 172.225C218.293 173.001 218.111 173.772 217.73 174.449" fill="#263238"/>
<path d="M221.486 181.422C221.257 182.884 221.45 184.381 222.044 185.737C222.497 187.146 223.34 188.398 224.476 189.348C223.691 188.147 222.999 186.888 222.406 185.582C221.993 184.221 221.686 182.83 221.486 181.422Z" fill="#455A64"/>
<path d="M219.333 177.843C218.826 179.075 218.717 180.436 219.023 181.733C219.191 183.056 219.774 184.291 220.689 185.261C220.174 184.097 219.765 182.888 219.468 181.65C219.318 180.387 219.273 179.113 219.333 177.843Z" fill="#455A64"/>
<path d="M239.458 160.853C238.299 158.882 236.556 157.32 234.471 156.383C233.423 155.936 232.275 155.775 231.144 155.916C230.013 156.058 228.94 156.498 228.035 157.19" fill="#263238"/>
<path d="M239.086 171.727C239.003 171.727 239.086 171.158 239.241 170.279C239.472 169.158 239.597 168.019 239.613 166.875C239.616 165.747 239.365 164.633 238.879 163.615C238.496 162.85 238.113 162.446 238.175 162.384C238.237 162.322 238.723 162.632 239.21 163.419C239.842 164.46 240.171 165.657 240.162 166.875C240.15 168.061 239.965 169.239 239.613 170.372C239.375 171.241 239.158 171.748 239.086 171.727Z" fill="#455A64"/>
<path d="M235.775 173.352C235.882 172.57 236.098 171.808 236.416 171.086C236.571 170.311 236.836 169.562 237.203 168.861C237.381 169.667 237.294 170.51 236.954 171.262C236.551 172.534 235.909 173.414 235.775 173.352Z" fill="#455A64"/>
<path d="M220.41 172.09C219.897 171.613 219.519 171.01 219.313 170.341C218.665 168.762 218.496 167.028 218.827 165.354C219.169 163.684 219.989 162.149 221.186 160.936C221.64 160.398 222.224 159.985 222.883 159.735C222.934 159.818 222.282 160.263 221.486 161.205C220.426 162.415 219.703 163.883 219.387 165.46C219.071 167.038 219.174 168.671 219.685 170.196C220.068 171.345 220.492 172.048 220.41 172.09Z" fill="#455A64"/>
<path d="M237.906 153.817C237.354 153.661 236.822 153.439 236.323 153.155C235.122 152.56 233.804 152.235 232.464 152.203C231.809 152.189 231.16 152.314 230.557 152.569C229.954 152.824 229.412 153.203 228.966 153.682C228.63 154.124 228.329 154.591 228.066 155.079C228.049 154.778 228.092 154.476 228.193 154.192C228.295 153.907 228.452 153.646 228.656 153.424C229.052 152.899 229.561 152.471 230.146 152.172C230.864 151.818 231.653 151.634 232.453 151.634C233.884 151.658 235.282 152.058 236.509 152.793C237.037 153.04 237.512 153.388 237.906 153.817Z" fill="#455A64"/>
<path d="M216.022 158.37C215.96 158.37 216.074 157.8 216.591 157.066C217.28 156.119 218.263 155.428 219.386 155.101C220.51 154.773 221.71 154.827 222.799 155.255C223.617 155.597 224.01 156 223.969 156.052C223.526 155.942 223.09 155.804 222.665 155.638C221.639 155.339 220.548 155.338 219.522 155.637C218.496 155.936 217.576 156.521 216.871 157.324C216.343 157.894 216.105 158.411 216.022 158.37Z" fill="#455A64"/>
<path d="M221.3 176.425C221.3 176.352 222.086 176.145 223.369 175.566C225.109 174.78 226.701 173.702 228.077 172.379L228.998 171.479L228.491 172.669C228.176 173.421 227.944 174.205 227.797 175.007C227.725 175.411 227.663 175.918 227.797 175.99C227.932 176.063 228.346 175.887 228.718 175.628C229.956 174.831 231.065 173.851 232.009 172.721L232.857 171.686L232.474 172.948L231.388 176.466L231.015 176.249C232.202 175.058 233.244 173.732 234.119 172.296C234.009 172.748 233.824 173.179 233.571 173.569C232.957 174.671 232.19 175.681 231.295 176.57L230.695 177.17L230.933 176.342C231.233 175.307 231.564 174.076 231.967 172.803L232.433 173.052C231.467 174.258 230.319 175.305 229.029 176.156C228.825 176.288 228.614 176.408 228.398 176.518C228.256 176.601 228.096 176.644 227.932 176.644C227.768 176.644 227.608 176.601 227.466 176.518C227.349 176.413 227.259 176.28 227.205 176.132C227.151 175.984 227.134 175.826 227.156 175.669C227.156 175.411 227.218 175.214 227.249 174.987C227.409 174.146 227.666 173.326 228.015 172.545L228.439 172.834C226.998 174.184 225.308 175.238 223.462 175.939C222.774 176.222 222.043 176.386 221.3 176.425Z" fill="#455A64"/>
<path d="M230.663 157.48C230.496 157.189 230.273 156.934 230.006 156.73C229.74 156.526 229.436 156.376 229.111 156.29C228.458 156.14 227.778 156.14 227.125 156.29C225.508 156.596 224.046 157.452 222.986 158.711C222.748 158.99 222.531 159.435 222.789 159.746C222.944 159.871 223.139 159.937 223.338 159.932C225.754 160.131 228.185 160.045 230.581 159.673" fill="#263238"/>
<path d="M199.033 301.767C199.354 302.347 203.275 315.467 211.925 317.691C220.575 319.916 247.529 318.436 248.264 317.691C248.998 316.946 256.924 312.58 260.752 303.516C264.581 294.452 237.089 278.632 237.089 278.632L199.033 301.767Z" fill="#263238"/>
<path d="M265.326 305.316L265.564 312.632C265.564 313.759 265.429 319.43 265.305 320.547L261.942 365.98C261.611 365.846 259.656 393.917 259.49 403.767C259.324 413.245 258.528 439.029 258.528 439.029H236.406L234.916 396.338L233.985 350.129L232.619 317.795L265.326 305.316Z" fill="#263238"/>
<path d="M199.033 294.535C199.033 294.535 199.519 295.259 199.405 305.316C199.323 313.004 203.989 360.393 203.989 360.393L222.872 359.824L226.649 312.362L199.033 294.535Z" fill="#263238"/>
<path d="M234.358 318.364C233.837 318.481 233.307 318.553 232.774 318.581C231.74 318.695 230.271 318.829 228.429 318.943C223.622 319.329 218.786 319.047 214.057 318.105C209.245 317.176 204.92 314.565 201.858 310.738C200.971 309.568 200.272 308.265 199.789 306.879C199.658 306.503 199.551 306.119 199.468 305.73C199.406 305.461 199.385 305.316 199.406 305.316C200.036 307.179 200.966 308.926 202.158 310.49C205.234 314.154 209.474 316.653 214.171 317.567C218.856 318.498 223.638 318.845 228.408 318.602L232.764 318.405C233.293 318.342 233.826 318.328 234.358 318.364Z" fill="#455A64"/>
<path d="M256.748 317.453C255.969 317.762 255.156 317.977 254.327 318.095C250.365 318.853 246.336 319.2 242.303 319.129C241.467 319.155 240.63 319.086 239.81 318.923C240.633 318.782 241.468 318.723 242.303 318.747C243.835 318.685 245.956 318.581 248.294 318.374C250.633 318.167 252.743 317.909 254.264 317.691C255.082 317.529 255.914 317.45 256.748 317.453Z" fill="#455A64"/>
<path d="M256.106 325.772C255.033 325.77 253.962 325.662 252.909 325.451C250.953 325.162 248.263 324.655 245.325 323.93C242.386 323.206 239.768 322.399 237.896 321.747C236.867 321.442 235.869 321.041 234.916 320.547C235.969 320.751 237.007 321.031 238.02 321.385C239.913 321.944 242.541 322.689 245.459 323.454C248.377 324.22 251.057 324.727 252.992 325.12C254.045 325.258 255.086 325.476 256.106 325.772Z" fill="#455A64"/>
<path d="M250.84 166.606C250.027 164.942 249.115 163.328 248.108 161.774C248.108 161.774 254.213 155.307 257.886 155.504L261.373 160.325L250.84 166.606Z" fill="white"/>
<path d="M279.749 186.937C278.414 182.798 261.683 158.638 261.683 158.638C255.475 158.638 249.495 166.119 249.495 166.119L261.383 191.159L248.884 202.664L262.997 219.333C262.997 219.333 271.906 208.19 274.575 204.154C280.525 195.142 281.073 191.097 279.749 186.937Z" fill="#C2ADD2"/>
<path opacity="0.3" d="M198.495 300.433C198.495 300.433 199.892 309.745 207.673 312.487C215.454 315.229 233.426 312.487 233.426 312.487L235.496 305.709L237.731 313.708L265.533 310.148L265.139 303.795L235.672 291.555L198.495 300.433Z" fill="black"/>
<path d="M259.117 269.444C258.527 266.153 257.772 264.488 257.627 262.501C257.182 256.572 257.213 242.356 257.627 240.535C258.155 238.144 262.987 219.334 262.987 219.334L261.342 204.765L240.814 201.351L239.375 198.04C239.375 198.04 225.676 194.491 217.016 199.147L215.515 202.686L210.166 204.031C209.359 204.351 205.168 205.521 201.992 206.379C200.241 206.845 198.613 207.688 197.222 208.85C195.831 210.012 194.712 211.464 193.942 213.105C193.396 214.295 192.916 215.514 192.504 216.757C191.086 220.958 182.933 244.177 182.571 251.254C182.147 259.531 189.472 259.811 193.952 258.755C198.433 257.7 203.337 247.684 203.337 247.684L206.151 267.281C205.74 269.956 205.085 272.588 204.196 275.145C201.464 282.595 197.532 297.008 197.532 297.008C199.064 301.809 204.63 309.424 207.548 310.459C210.466 311.494 229.97 310.655 229.97 310.655L235.723 295.394L241.031 311.442L268.709 307.127L259.117 269.444Z" fill="#C2ADD2"/>
<path d="M235.692 263.794C235.764 263.918 231.781 266.557 226.794 269.671C223.823 271.634 220.757 273.447 217.605 275.103C220.471 272.992 223.44 271.027 226.504 269.216C229.472 267.254 232.539 265.444 235.692 263.794Z" fill="#263238"/>
<path d="M228.408 271.844C228.48 271.968 224.269 274.783 218.94 278.135C213.612 281.487 209.276 284.095 209.194 283.971C209.111 283.846 213.332 281.032 218.661 277.68C223.99 274.327 228.325 271.71 228.408 271.844Z" fill="#263238"/>
<path d="M250.291 249.909C249.527 251.831 248.399 253.587 246.97 255.082C245.676 256.687 244.08 258.022 242.272 259.014C242.169 258.89 244.342 257.245 246.566 254.73C248.791 252.216 250.146 249.826 250.291 249.909Z" fill="#263238"/>
<path d="M250.84 252.527C250.626 253.256 250.313 253.952 249.909 254.596C249.035 256.202 248.053 257.748 246.97 259.221C245.882 260.682 244.693 262.065 243.411 263.36C242.919 263.942 242.344 264.448 241.704 264.86C241.59 264.746 244.021 262.284 246.536 258.859C249.05 255.434 250.705 252.444 250.84 252.527Z" fill="#263238"/>
<path d="M251.491 277.918C251.651 276.979 251.89 276.054 252.205 275.155C252.692 273.469 253.333 271.13 253.944 268.513C254.554 265.895 254.978 263.525 255.309 261.787C255.428 260.843 255.618 259.909 255.879 258.993C255.92 259.95 255.854 260.908 255.682 261.849C255.394 264.121 254.987 266.377 254.461 268.606C253.944 270.848 253.312 273.061 252.568 275.238C252.303 276.166 251.943 277.065 251.491 277.918Z" fill="#263238"/>
<path d="M261.683 217.047C261.539 217.13 259.697 213.943 256.913 210.394C254.13 206.845 251.502 204.268 251.616 204.186C252.298 204.62 252.918 205.145 253.458 205.748C254.849 207.106 256.145 208.558 257.338 210.094C258.533 211.627 259.625 213.238 260.607 214.915C261.059 215.575 261.42 216.292 261.683 217.047Z" fill="#263238"/>
<path d="M266.122 209.68C264.94 208.006 263.549 206.49 261.983 205.169C260.321 203.983 258.512 203.016 256.603 202.292C257.224 202.283 257.841 202.402 258.414 202.644C261.256 203.602 263.686 205.5 265.305 208.024C265.685 208.516 265.963 209.079 266.122 209.68Z" fill="#263238"/>
<path d="M206.121 267.24C205.976 267.24 204.31 256.551 202.416 243.328C200.523 230.105 199.095 219.354 199.25 219.334C199.406 219.313 201.051 230.022 202.955 243.245C204.858 256.469 206.266 267.209 206.121 267.24Z" fill="#263238"/>
<path d="M241.103 201.351C239.843 201.381 238.583 201.346 237.327 201.247C234.988 201.154 231.77 201.113 228.211 201.247C224.652 201.382 221.454 201.785 219.147 202.106C217.905 202.335 216.651 202.497 215.391 202.592C215.707 202.456 216.036 202.356 216.374 202.292C217.005 202.137 217.936 201.941 219.085 201.734C222.095 201.194 225.136 200.848 228.19 200.699C231.242 200.546 234.3 200.584 237.347 200.813C238.516 200.906 239.417 201.009 240.11 201.102C240.45 201.142 240.784 201.226 241.103 201.351Z" fill="#263238"/>
<g opacity="0.3">
<path d="M203.41 248.387C202.313 240.11 200.802 231.832 199.706 223.555C196.715 231.698 198.36 241.31 203.41 248.387Z" fill="black"/>
</g>
<g opacity="0.3">
<path d="M261.187 190.838C263.129 188.992 265.607 187.811 268.264 187.465C268.886 187.329 269.53 187.325 270.154 187.453C270.778 187.582 271.368 187.84 271.885 188.21C271.999 188.293 272.092 188.402 272.155 188.528C272.218 188.654 272.25 188.794 272.248 188.934C272.217 189.071 272.145 189.195 272.041 189.29C271.937 189.384 271.807 189.444 271.668 189.462C271.392 189.519 271.107 189.519 270.83 189.462C267.654 188.893 264.208 189.824 261.197 190.983" fill="black"/>
</g>
<g opacity="0.3">
<path d="M216.56 202.768C219.227 203.424 221.994 203.564 224.714 203.182C229.542 202.761 234.35 202.134 239.137 201.299C231.437 200.257 223.609 200.696 216.074 202.592" fill="black"/>
</g>
<g opacity="0.3">
<path d="M215.66 280.277C226.61 277.185 236.443 271.015 243.99 262.501C235.32 267.974 224.093 274.255 215.66 280.277Z" fill="black"/>
</g>
<path d="M267.891 189.607C266.656 189.555 265.42 189.652 264.208 189.897C263.043 190.317 261.934 190.88 260.907 191.573C260.856 191.573 261.083 191.149 261.621 190.683C262.327 190.076 263.157 189.631 264.053 189.379C264.951 189.127 265.893 189.071 266.815 189.214C267.519 189.338 267.912 189.545 267.891 189.607Z" fill="#263238"/>
<path d="M166.503 177.636L156.973 178.07C153.896 181.74 149.853 184.474 145.302 185.965C142.096 187.008 138.714 187.396 135.355 187.107C131.997 186.818 128.73 185.858 125.749 184.283C122.769 182.708 120.135 180.551 118.003 177.939C115.872 175.328 114.286 172.315 113.341 169.079C111.323 162.484 111.95 155.362 115.087 149.22C118.225 143.078 123.628 138.397 130.154 136.166C133.36 135.122 136.743 134.733 140.102 135.022C143.461 135.311 146.727 136.272 149.708 137.848C152.688 139.424 155.321 141.583 157.451 144.197C159.581 146.81 161.164 149.825 162.106 153.062C163.798 158.6 163.642 164.538 161.661 169.979L166.503 177.636Z" fill="white"/>
<path d="M166.502 177.636L166.161 177.129L165.209 175.649L161.567 170H161.753C161.743 170.011 161.73 170.02 161.716 170.026C161.701 170.032 161.686 170.035 161.67 170.035C161.655 170.035 161.64 170.032 161.625 170.026C161.611 170.02 161.598 170.011 161.588 170C161.573 169.979 161.564 169.953 161.564 169.927C161.564 169.901 161.573 169.876 161.588 169.855C163.032 165.788 163.479 161.435 162.891 157.159C162.503 154.412 161.671 151.746 160.429 149.265C157.537 143.304 152.409 138.727 146.16 136.528C142.659 135.307 138.929 134.887 135.244 135.296C131.329 135.763 127.574 137.123 124.266 139.27C120.82 141.517 117.977 144.576 115.989 148.178C113.948 151.715 112.781 155.688 112.585 159.767C112.368 163.651 113.004 167.536 114.447 171.148C115.763 174.439 117.758 177.415 120.302 179.883C122.847 182.351 125.883 184.254 129.212 185.468C134.779 187.479 140.882 187.435 146.419 185.344C150.483 183.801 154.09 181.252 156.901 177.936C156.931 177.926 156.963 177.926 156.994 177.936L164.04 177.698L165.882 177.636H166.523H165.933L164.133 177.75L157.004 178.153H157.087C154.278 181.538 150.648 184.145 146.543 185.727C140.93 187.898 134.723 187.975 129.057 185.944C125.659 184.721 122.558 182.792 119.958 180.284C117.358 177.777 115.318 174.748 113.971 171.397C112.483 167.708 111.826 163.738 112.047 159.767C112.172 157.714 112.519 155.681 113.081 153.703C114.309 149.662 116.431 145.949 119.29 142.839C120.719 141.334 122.316 139.997 124.049 138.856C127.408 136.658 131.228 135.263 135.213 134.779C138.833 134.39 142.494 134.786 145.948 135.939C149.401 137.093 152.565 138.977 155.224 141.463C157.542 143.636 159.44 146.218 160.822 149.078C162.062 151.606 162.886 154.317 163.264 157.108C163.845 161.454 163.355 165.876 161.836 169.989L161.629 169.886C161.64 169.875 161.653 169.866 161.667 169.86C161.681 169.853 161.696 169.85 161.712 169.85C161.727 169.85 161.743 169.853 161.757 169.86C161.771 169.866 161.784 169.875 161.795 169.886C163.347 172.411 164.537 174.356 165.364 175.691L166.254 177.16C166.42 177.481 166.502 177.636 166.502 177.636Z" fill="#263238"/>
<path d="M129.657 156.88L137.252 147.247L144.846 156.756L129.657 156.88Z" fill="#C09ED8"/>
<path d="M140.987 174.49L134.075 174.542L133.858 155.318L140.77 155.266L140.987 174.49Z" fill="#C09ED8"/>
<path d="M53.452 299.76C53.452 299.76 53.0174 299.646 52.231 299.491C51.1343 299.267 50.0069 299.236 48.8993 299.398C47.2579 299.626 45.7113 300.303 44.4295 301.353C42.884 302.646 41.7957 304.402 41.3254 306.361V306.423L41.1288 307.158L40.8495 306.454C40.08 304.587 38.7634 302.997 37.0728 301.892C35.6911 300.988 34.104 300.447 32.4581 300.319C30.9284 300.241 29.3972 300.438 27.9365 300.898C28.2915 300.675 28.6789 300.507 29.085 300.402C30.1819 300.058 31.3308 299.911 32.4788 299.967C34.1979 300.052 35.866 300.579 37.3212 301.498C39.1102 302.641 40.5046 304.306 41.3151 306.268H40.8391V306.206C41.3328 304.145 42.493 302.305 44.1398 300.971C45.2768 300.076 46.6066 299.459 48.0236 299.168C49.4407 298.877 50.906 298.921 52.3035 299.294C52.7093 299.386 53.0973 299.543 53.452 299.76Z" fill="#263238"/>
<path d="M103.531 295.797C103.048 296.432 102.526 297.037 101.968 297.608C100.544 299.241 99.2565 300.988 98.1192 302.833C94.3441 308.917 92.3642 315.943 92.4077 323.103V323.361L91.6938 323.423C90.6113 316.395 87.3548 309.882 82.3816 304.799C80.2869 302.748 78.004 300.898 75.563 299.274C75.7626 299.327 75.9516 299.415 76.1217 299.532C76.6489 299.795 77.1602 300.089 77.6531 300.412C79.4884 301.568 81.1919 302.921 82.7334 304.447C87.9234 309.517 91.3228 316.138 92.4181 323.31L91.7145 323.361V323.103C91.6611 315.813 93.7477 308.669 97.7157 302.554C98.8969 300.699 100.259 298.966 101.782 297.38C102.31 296.811 102.817 296.428 103.065 296.149C103.313 295.87 103.52 295.797 103.531 295.797Z" fill="#263238"/>
<path d="M359.482 234.295C359.482 234.347 358.613 233.995 357.009 233.643C354.749 233.15 352.42 233.058 350.129 233.374C346.714 233.822 343.49 235.209 340.816 237.379C337.559 240.037 335.262 243.69 334.277 247.777V247.891L334.08 248.636L333.801 247.932C332.21 244.053 329.474 240.75 325.958 238.465C323.094 236.597 319.799 235.496 316.387 235.268C314.088 235.106 311.778 235.319 309.548 235.899C307.965 236.313 307.137 236.675 307.116 236.634C307.301 236.514 307.499 236.417 307.706 236.344C308.289 236.096 308.887 235.885 309.496 235.713C312.289 234.891 315.225 234.677 318.107 235.084C320.989 235.491 323.751 236.509 326.206 238.072C329.817 240.394 332.63 243.767 334.267 247.736H333.791V247.622C334.799 243.427 337.168 239.683 340.527 236.975C342.825 235.145 345.515 233.872 348.387 233.255C351.259 232.637 354.235 232.692 357.082 233.416C357.698 233.562 358.303 233.752 358.892 233.985C359.095 234.076 359.292 234.18 359.482 234.295Z" fill="#263238"/>
<path d="M428.299 196.529C428.299 196.529 427.813 196.394 426.933 196.218C425.695 195.959 424.42 195.921 423.167 196.105C421.316 196.357 419.571 197.121 418.128 198.309C416.352 199.753 415.101 201.742 414.569 203.968V204.03L414.383 204.775L414.093 204.072C413.231 201.954 411.744 200.149 409.83 198.898C408.283 197.883 406.502 197.277 404.657 197.139C403.4 197.042 402.136 197.143 400.911 197.439C400.042 197.657 399.576 197.843 399.566 197.802C399.663 197.727 399.771 197.668 399.887 197.626C400.202 197.478 400.527 197.354 400.859 197.253C402.403 196.787 404.029 196.658 405.627 196.876C407.225 197.094 408.757 197.653 410.12 198.516C412.133 199.795 413.698 201.668 414.6 203.875H414.124V203.813C414.682 201.483 416 199.404 417.87 197.905C419.143 196.898 420.633 196.199 422.222 195.865C423.811 195.531 425.455 195.571 427.027 195.981C427.38 196.067 427.726 196.182 428.061 196.322C428.151 196.378 428.231 196.448 428.299 196.529Z" fill="#263238"/>
<path d="M383.301 181.071C383.301 181.071 382.835 181.609 381.976 182.571C380.785 183.938 379.706 185.398 378.748 186.937C375.583 192.029 373.922 197.912 373.957 203.906V204.124H373.45C372.963 200.899 371.912 197.786 370.346 194.925C369.078 192.592 367.49 190.446 365.628 188.552C364.365 187.261 362.978 186.097 361.489 185.075C360.929 184.728 360.387 184.351 359.865 183.947C360.023 184.005 360.176 184.078 360.32 184.165C360.61 184.34 361.065 184.558 361.593 184.91C363.126 185.88 364.548 187.015 365.835 188.293C370.151 192.541 372.981 198.067 373.906 204.051H373.409V203.834C373.373 197.745 375.11 191.777 378.407 186.658C379.397 185.121 380.534 183.683 381.8 182.364C382.235 181.878 382.618 181.557 382.835 181.329C382.98 181.226 383.136 181.139 383.301 181.071Z" fill="#263238"/>
</svg>
