<svg width="24" height="30" viewBox="0 0 24 30" fill="none" xmlns="http://www.w3.org/2000/svg">
<path d="M12.0003 0.833328C9.01407 0.833179 6.14844 2.01165 4.02625 4.11262C1.90407 6.21358 0.696855 9.06722 0.666992 12.0533C0.666992 19.8167 10.6545 28.4583 11.0795 28.8267C11.3361 29.0461 11.6627 29.1668 12.0003 29.1668C12.338 29.1668 12.6646 29.0461 12.9212 28.8267C13.417 28.4583 23.3337 19.8167 23.3337 12.0533C23.3038 9.06722 22.0966 6.21358 19.9744 4.11262C17.8522 2.01165 14.9866 0.833179 12.0003 0.833328ZM12.0003 25.8375C9.63449 23.585 3.50033 17.3375 3.50033 12.0533C3.50033 9.79899 4.39586 7.63698 5.98992 6.04292C7.58398 4.44886 9.74599 3.55333 12.0003 3.55333C14.2547 3.55333 16.4167 4.44886 18.0107 6.04292C19.6048 7.63698 20.5003 9.79899 20.5003 12.0533C20.5003 17.295 14.3662 23.585 12.0003 25.8375Z" fill="#4B0082"/>
</svg>
